HIERARCHY
ROOT Hips
{
	OFFSET 0.00000 0.00000 0.00000
	CHANNELS 6 Xposition Yposition Zposition Zrotation Yrotation Xrotation 
	JOINT LHipJoint
	{
		OFFSET 0 0 0
		CHANNELS 3 Zrotation Yrotation Xrotation
		JOINT LeftUpLeg
		{
			OFFSET 1.52977 -1.71332 0.88991
			CHANNELS 3 Zrotation Yrotation Xrotation
			JOINT LeftLeg
			{
				OFFSET 2.23949 -6.15296 0.00000
				CHANNELS 3 Zrotation Yrotation Xrotation
				JOINT LeftFoot
				{
					OFFSET 2.68396 -7.37412 0.00000
					CHANNELS 3 Zrotation Yrotation Xrotation
					JOINT LeftToeBase
					{
						OFFSET 0.20538 -0.56428 2.52710
						CHANNELS 3 Zrotation Yrotation Xrotation
						End Site
						{
							OFFSET 0.00000 -0.00000 1.29919
						}
					}
				}
			}
		}
	}
	JOINT RHipJoint
	{
		OFFSET 0 0 0
		CHANNELS 3 Zrotation Yrotation Xrotation
		JOINT RightUpLeg
		{
			OFFSET -1.45689 -1.71333 0.88991
			CHANNELS 3 Zrotation Yrotation Xrotation
			JOINT RightLeg
			{
				OFFSET -2.36700 -6.50329 0.00000
				CHANNELS 3 Zrotation Yrotation Xrotation
				JOINT RightFoot
				{
					OFFSET -2.69814 -7.41308 0.00000
					CHANNELS 3 Zrotation Yrotation Xrotation
					JOINT RightToeBase
					{
						OFFSET -0.18734 -0.51471 2.37479
						CHANNELS 3 Zrotation Yrotation Xrotation
						End Site
						{
							OFFSET -0.00000 -0.00000 1.22113
						}
					}
				}
			}
		}
	}
	JOINT LowerBack
	{
		OFFSET 0 0 0
		CHANNELS 3 Zrotation Yrotation Xrotation
		JOINT Spine
		{
			OFFSET 0.04294 2.14638 -0.31163
			CHANNELS 3 Zrotation Yrotation Xrotation
			JOINT Spine1
			{
				OFFSET -0.00400 2.17216 0.01486
				CHANNELS 3 Zrotation Yrotation Xrotation
				JOINT Neck
				{
					OFFSET 0 0 0
					CHANNELS 3 Zrotation Yrotation Xrotation
					JOINT Neck1
					{
						OFFSET 0.03869 1.76598 0.14916
						CHANNELS 3 Zrotation Yrotation Xrotation
						JOINT Head
						{
							OFFSET -0.00760 1.75513 -0.18948
							CHANNELS 3 Zrotation Yrotation Xrotation
							End Site
							{
								OFFSET -0.00601 1.82444 -0.08310
							}
						}
					}
				}
				JOINT LeftShoulder
				{
					OFFSET 0 0 0
					CHANNELS 3 Zrotation Yrotation Xrotation
					JOINT LeftArm
					{
						OFFSET 3.73696 0.92058 0.01733
						CHANNELS 3 Zrotation Yrotation Xrotation
						JOINT LeftForeArm
						{
							OFFSET 5.22771 -0.00000 0.00000
							CHANNELS 3 Zrotation Yrotation Xrotation
							JOINT LeftHand
							{
								OFFSET 3.45251 -0.00000 0.00000
								CHANNELS 3 Zrotation Yrotation Xrotation
								JOINT LeftFingerBase
								{
									OFFSET 0 0 0
									CHANNELS 3 Zrotation Yrotation Xrotation
									JOINT LeftHandIndex1
									{
										OFFSET 0.55212 -0.00000 0.00000
										CHANNELS 3 Zrotation Yrotation Xrotation
										End Site
										{
											OFFSET 0.44513 -0.00000 0.00000
										}
									}
								}
								JOINT LThumb
								{
									OFFSET 0 0 0
									CHANNELS 3 Zrotation Yrotation Xrotation
									End Site
									{
										OFFSET 0.45193 -0.00000 0.45193
									}
								}
							}
						}
					}
				}
				JOINT RightShoulder
				{
					OFFSET 0 0 0
					CHANNELS 3 Zrotation Yrotation Xrotation
					JOINT RightArm
					{
						OFFSET -3.63819 0.83094 -0.13694
						CHANNELS 3 Zrotation Yrotation Xrotation
						JOINT RightForeArm
						{
							OFFSET -5.23980 -0.00000 -0.00000
							CHANNELS 3 Zrotation Yrotation Xrotation
							JOINT RightHand
							{
								OFFSET -3.48042 -0.00000 -0.00000
								CHANNELS 3 Zrotation Yrotation Xrotation
								JOINT RightFingerBase
								{
									OFFSET 0 0 0
									CHANNELS 3 Zrotation Yrotation Xrotation
									JOINT RightHandIndex1
									{
										OFFSET -0.61871 -0.00000 0.00000
										CHANNELS 3 Zrotation Yrotation Xrotation
										End Site
										{
											OFFSET -0.49882 -0.00000 0.00000
										}
									}
								}
								JOINT RThumb
								{
									OFFSET 0 0 0
									CHANNELS 3 Zrotation Yrotation Xrotation
									End Site
									{
										OFFSET -0.50644 -0.00000 0.50644
									}
								}
							}
						}
					}
				}
			}
		}
	}
}
MOTION
Frames: 16
Frame Time: .0083333
-39.0216 17.025 -5.9496 0 0 0 0 0 0 -21 0 0 0 0 0 0 0 0 0 0 0 0 0 0 21 0 0 0 0 0 0 0 0 0 0 0 0 0 0 0 0 0 0 0 0 0 0 -16 0 0 21 0 0 11 0 0 0 -8 0 0 0 0 0 0 0 0 0 0 0 0 0 0 0 0 0 0 0 0 8 0 0 0 0 0 0 0 0 0 0 0 0 0 0 0 0 0
-39.0216 17.0250 -5.9496 -55.6427 86.1528 -57.0385 0.0000 0.0000 0.0000 -17.0381 5.3388 -2.5546 1.0984 6.6598 18.7114 0.7951 2.9748 -18.1749 0.0980 -2.0186 -5.5571 0.0000 0.0000 0.0000 23.1000 7.5613 -6.4544 -3.2772 -11.1309 32.7225 -1.9953 -4.4936 -28.5948 -0.1715 -2.6675 7.3544 2.5612 -0.4953 0.3201 0.2649 -0.6678 1.9840 -1.1715 -0.2871 1.8285 2.0643 0.1925 -8.6297 1.3157 -0.1207 9.1215 0.0691 0.0987 4.5879 0.0000 -0.0000 0.0000 -88.1724 1.1255 26.3626 12.4487 -20.4741 -2.2568 -0.0000 0.0000 -15.2869 17.3901 12.2411 3.7991 -7.1250 0.0000 -0.0000 -8.8870 42.6157 0.5274 0.0000 -0.0000 0.0000 89.8429 -1.2556 22.2769 -13.7562 22.3850 -2.7346 0.0000 0.0000 1.9265 -19.0592 -7.1579 2.4650 7.1250 -0.0000 -0.0000 6.5868 -37.4751 1.2263
-39.0224 17.0244 -5.9490 -55.8766 86.1372 -57.2620 0.0000 0.0000 0.0000 -17.0166 5.2999 -2.5904 1.1034 6.6744 18.7543 0.7929 3.0198 -18.1763 0.1028 -2.0679 -5.6933 0.0000 0.0000 0.0000 23.1264 7.5716 -6.4563 -3.2744 -11.1265 32.7078 -1.9960 -4.4780 -28.5915 -0.1773 -2.7121 7.4782 2.5870 -0.4910 0.3467 0.2662 -0.6612 1.9618 -1.1842 -0.2841 1.7908 2.0877 0.1868 -8.6290 1.2862 -0.1286 9.1544 0.0544 0.0946 4.5997 0.0000 -0.0000 0.0000 -88.1789 1.1344 26.3587 12.4375 -20.4576 -2.2529 -0.0000 0.0000 -15.2546 17.4059 11.9567 3.7160 -7.1250 0.0000 -0.0000 -8.8141 42.3246 0.5868 0.0000 -0.0000 0.0000 89.8540 -1.2947 22.3065 -13.7743 22.4112 -2.7415 0.0000 0.0000 1.9237 -19.0821 -7.3017 2.5174 7.1250 -0.0000 -0.0000 6.5861 -37.6273 1.2015
-39.0220 17.0254 -5.9485 -56.6661 86.1341 -58.0392 0.0000 0.0000 0.0000 -16.9755 5.2881 -2.6123 1.1044 6.6773 18.7629 0.7976 2.9594 -18.1929 0.0982 -2.0204 -5.5620 0.0000 0.0000 0.0000 23.1608 7.5492 -6.4785 -3.2739 -11.1258 32.7052 -1.9952 -4.5133 -28.6036 -0.1764 -2.7056 7.4601 2.6080 -0.4978 0.3462 0.2818 -0.6705 1.9547 -1.1800 -0.2888 1.7834 2.0914 0.2002 -8.6147 1.2716 -0.1089 9.1280 0.0500 0.1031 4.5872 0.0000 -0.0000 0.0000 -88.1855 1.1150 26.4460 12.4616 -20.4933 -2.2613 -0.0000 0.0000 -15.3056 17.4495 12.1879 3.7966 -7.1250 0.0000 -0.0000 -8.8232 42.5670 0.5342 0.0000 -0.0000 0.0000 89.8394 -1.3155 22.3584 -13.7947 22.4405 -2.7493 0.0000 0.0000 1.8954 -19.0555 -7.3280 2.5227 7.1250 -0.0000 -0.0000 6.6121 -37.6532 1.2021
-39.0209 17.0251 -5.9478 -56.4692 86.1462 -57.8525 0.0000 0.0000 0.0000 -16.9964 5.2687 -2.5916 1.1060 6.6819 18.7765 0.7958 2.9948 -18.1932 0.1013 -2.0526 -5.6511 0.0000 0.0000 0.0000 23.1446 7.5360 -6.4682 -3.2738 -11.1257 32.7049 -1.9925 -4.5245 -28.5915 -0.1715 -2.6681 7.3561 2.5863 -0.4916 0.3526 0.2750 -0.6617 1.9533 -1.1747 -0.2847 1.7788 2.1060 0.1974 -8.6143 1.2714 -0.1146 9.1439 0.0470 0.1011 4.5929 -0.0000 0.0000 0.0000 -88.1813 1.1182 26.5014 12.4716 -20.5081 -2.2648 -0.0000 0.0000 -15.3283 17.4268 12.1392 3.7765 -7.1250 0.0000 -0.0000 -8.8332 42.5145 0.5463 -0.0000 0.0000 0.0000 89.8434 -1.3311 22.3766 -13.7928 22.4378 -2.7485 0.0000 0.0000 1.8838 -19.0524 -7.2932 2.5103 7.1250 -0.0000 -0.0000 6.6101 -37.6165 1.2077
-39.0202 17.0251 -5.9472 -56.6367 86.1462 -58.0216 0.0000 0.0000 0.0000 -16.9894 5.2534 -2.5856 1.1067 6.6841 18.7828 0.7960 3.0004 -18.1986 0.1015 -2.0540 -5.6549 0.0000 0.0000 0.0000 23.1529 7.5248 -6.4681 -3.2738 -11.1257 32.7049 -1.9911 -4.5362 -28.5882 -0.1699 -2.6557 7.3216 2.5891 -0.4890 0.3652 0.2762 -0.6579 1.9447 -1.1748 -0.2831 1.7631 2.1174 0.1988 -8.6054 1.2645 -0.1132 9.1478 0.0427 0.1019 4.5925 0.0000 -0.0000 0.0000 -88.1809 1.1171 26.5546 12.4794 -20.5196 -2.2675 -0.0000 0.0000 -15.3449 17.4268 12.1560 3.7817 -7.1250 0.0000 -0.0000 -8.8367 42.5319 0.5427 0.0000 -0.0000 0.0000 89.8464 -1.3643 22.4008 -13.8092 22.4613 -2.7548 0.0000 0.0000 1.8690 -19.0444 -7.2985 2.5110 7.1250 -0.0000 -0.0000 6.6176 -37.6215 1.2083
-39.0194 17.0251 -5.9468 -56.7865 86.1454 -58.1748 0.0000 0.0000 0.0000 -16.9825 5.2407 -2.5749 1.1070 6.6849 18.7851 0.7965 3.0049 -18.2056 0.1013 -2.0526 -5.6509 0.0000 0.0000 0.0000 23.1610 7.5134 -6.4679 -3.2749 -11.1272 32.7102 -1.9904 -4.5426 -28.5872 -0.1685 -2.6446 7.2908 2.5920 -0.4859 0.3787 0.2776 -0.6533 1.9363 -1.1747 -0.2810 1.7471 2.1280 0.1990 -8.5958 1.2590 -0.1133 9.1514 0.0389 0.1020 4.5919 -0.0000 -0.0000 0.0000 -88.1801 1.1157 26.6089 12.4856 -20.5289 -2.2697 -0.0000 0.0000 -15.3594 17.4250 12.1927 3.7925 -7.1250 0.0000 -0.0000 -8.8460 42.5695 0.5351 -0.0000 -0.0000 0.0000 89.8509 -1.3923 22.4158 -13.8193 22.4758 -2.7586 0.0000 0.0000 1.8573 -19.0408 -7.2859 2.5062 7.1250 -0.0000 -0.0000 6.6190 -37.6080 1.2107
-39.0186 17.0249 -5.9463 -56.8811 86.1457 -58.2725 0.0000 0.0000 0.0000 -16.9790 5.2268 -2.5685 1.1081 6.6881 18.7945 0.7971 3.0106 -18.2155 0.1011 -2.0504 -5.6449 0.0000 0.0000 0.0000 23.1658 7.5030 -6.4654 -3.2751 -11.1276 32.7114 -1.9897 -4.5478 -28.5847 -0.1674 -2.6361 7.2673 2.5919 -0.4824 0.3928 0.2781 -0.6481 1.9281 -1.1739 -0.2788 1.7309 2.1368 0.1981 -8.5876 1.2567 -0.1151 9.1538 0.0365 0.1014 4.5911 0.0000 0.0000 0.0000 -88.1799 1.1119 26.6556 12.4879 -20.5322 -2.2705 -0.0000 0.0000 -15.3671 17.4160 12.2147 3.7971 -7.1250 0.0000 -0.0000 -8.8585 42.5912 0.5310 0.0000 0.0000 0.0000 89.8578 -1.4167 22.4228 -13.8265 22.4861 -2.7614 0.0000 0.0000 1.8483 -19.0411 -7.2659 2.4994 7.1250 -0.0000 -0.0000 6.6161 -37.5871 1.2136
-39.0179 17.0248 -5.9458 -57.0175 86.1407 -58.4099 0.0000 0.0000 0.0000 -16.9675 5.2157 -2.5676 1.1094 6.6919 18.8058 0.7981 3.0105 -18.2249 0.1004 -2.0436 -5.6261 0.0000 0.0000 0.0000 23.1787 7.4973 -6.4625 -3.2751 -11.1276 32.7114 -1.9895 -4.5522 -28.5860 -0.1672 -2.6345 7.2629 2.5954 -0.4795 0.4029 0.2818 -0.6439 1.9226 -1.1719 -0.2769 1.7197 2.1449 0.1969 -8.5887 1.2535 -0.1174 9.1574 0.0338 0.1004 4.5926 -0.0000 -0.0000 0.0000 -88.1821 1.0989 26.6960 12.4871 -20.5311 -2.2702 -0.0000 0.0000 -15.3694 17.4079 12.2388 3.8026 -7.1250 0.0000 -0.0000 -8.8707 42.6152 0.5265 -0.0000 -0.0000 0.0000 89.8640 -1.4277 22.4255 -13.8274 22.4875 -2.7618 0.0000 0.0000 1.8430 -19.0451 -7.2452 2.4929 7.1250 -0.0000 -0.0000 6.6100 -37.5657 1.2159
-39.0174 17.0248 -5.9451 -57.2069 86.1364 -58.5928 0.0000 0.0000 0.0000 -16.9541 5.1989 -2.5770 1.1109 6.6963 18.8187 0.7987 3.0093 -18.2312 0.0998 -2.0375 -5.6093 0.0000 0.0000 0.0000 23.1932 7.4956 -6.4665 -3.2749 -11.1273 32.7103 -1.9900 -4.5566 -28.5912 -0.1674 -2.6360 7.2669 2.5969 -0.4789 0.4066 0.2872 -0.6430 1.9180 -1.1671 -0.2765 1.7129 2.1493 0.1961 -8.5978 1.2544 -0.1195 9.1611 0.0332 0.0997 4.5958 -0.0000 0.0000 0.0000 -88.1855 1.0797 26.7293 12.4854 -20.5285 -2.2696 -0.0000 0.0000 -15.3703 17.3988 12.2519 3.8044 -7.1250 0.0000 -0.0000 -8.8816 42.6277 0.5244 -0.0000 0.0000 0.0000 89.8694 -1.4235 22.4272 -13.8198 22.4765 -2.7588 0.0000 0.0000 1.8389 -19.0546 -7.2215 2.4861 7.1250 -0.0000 -0.0000 6.5989 -37.5414 1.2178
-39.0168 17.0247 -5.9444 -57.3557 86.1271 -58.7337 0.0000 0.0000 0.0000 -16.9376 5.1837 -2.5886 1.1127 6.7014 18.8337 0.7995 3.0096 -18.2389 0.0993 -2.0320 -5.5940 0.0000 0.0000 0.0000 23.2106 7.4950 -6.4704 -3.2744 -11.1265 32.7076 -1.9905 -4.5575 -28.5948 -0.1677 -2.6384 7.2735 2.6018 -0.4767 0.4032 0.2930 -0.6402 1.9160 -1.1639 -0.2752 1.7130 2.1548 0.1949 -8.6108 1.2560 -0.1225 9.1648 0.0325 0.0986 4.5999 0.0000 -0.0000 0.0000 -88.1881 1.0573 26.7606 12.4835 -20.5257 -2.2690 -0.0000 0.0000 -15.3714 17.3877 12.2498 3.8012 -7.1250 0.0000 -0.0000 -8.8910 42.6244 0.5257 0.0000 -0.0000 0.0000 89.8751 -1.4097 22.4288 -13.8086 22.4605 -2.7546 0.0000 0.0000 1.8366 -19.0615 -7.2084 2.4826 7.1250 -0.0000 -0.0000 6.5914 -37.5282 1.2186
-39.0160 17.0245 -5.9438 -57.4518 86.1188 -58.8219 0.0000 0.0000 0.0000 -16.9243 5.1711 -2.5985 1.1142 6.7059 18.8469 0.8003 3.0098 -18.2479 0.0989 -2.0284 -5.5842 0.0000 0.0000 0.0000 23.2243 7.4936 -6.4731 -3.2739 -11.1257 32.7051 -1.9915 -4.5515 -28.5985 -0.1684 -2.6433 7.2872 2.6051 -0.4744 0.3973 0.2976 -0.6375 1.9155 -1.1612 -0.2737 1.7160 2.1581 0.1934 -8.6281 1.2611 -0.1261 9.1712 0.0335 0.0974 4.6058 -0.0000 -0.0000 0.0000 -88.1894 1.0377 26.7907 12.4843 -20.5270 -2.2693 -0.0000 0.0000 -15.3741 17.3779 12.2468 3.7980 -7.1250 0.0000 -0.0000 -8.8990 42.6202 0.5271 -0.0000 -0.0000 0.0000 89.8812 -1.3970 22.4372 -13.8017 22.4505 -2.7519 0.0000 0.0000 1.8306 -19.0664 -7.2074 2.4829 7.1250 -0.0000 -0.0000 6.5871 -37.5274 1.2179
-39.0149 17.0244 -5.9433 -57.4771 86.1121 -58.8407 0.0000 0.0000 0.0000 -16.9161 5.1626 -2.6050 1.1155 6.7098 18.8583 0.8013 3.0116 -18.2586 0.0991 -2.0296 -5.5876 0.0000 0.0000 0.0000 23.2320 7.4887 -6.4762 -3.2735 -11.1252 32.7033 -1.9916 -4.5454 -28.5962 -0.1682 -2.6419 7.2832 2.6072 -0.4712 0.3895 0.2999 -0.6335 1.9154 -1.1600 -0.2717 1.7203 2.1643 0.1922 -8.6424 1.2642 -0.1293 9.1777 0.0332 0.0963 4.6111 0.0000 -0.0000 0.0000 -88.1885 1.0236 26.8214 12.4878 -20.5322 -2.2705 -0.0000 0.0000 -15.3768 17.3729 12.2475 3.7971 -7.1250 0.0000 -0.0000 -8.9036 42.6205 0.5273 0.0000 -0.0000 0.0000 89.8882 -1.3825 22.4477 -13.7928 22.4378 -2.7485 0.0000 0.0000 1.8269 -19.0692 -7.2175 2.4868 7.1250 -0.0000 -0.0000 6.5861 -37.5382 1.2159
-39.0135 17.0242 -5.9429 -57.4204 86.1088 -58.7808 0.0000 0.0000 0.0000 -16.9149 5.1587 -2.6027 1.1163 6.7120 18.8650 0.8027 3.0097 -18.2724 0.0986 -2.0251 -5.5749 0.0000 0.0000 0.0000 23.2316 7.4780 -6.4778 -3.2735 -11.1252 32.7032 -1.9913 -4.5364 -28.5897 -0.1676 -2.6371 7.2700 2.6065 -0.4677 0.3845 0.2994 -0.6290 1.9148 -1.1600 -0.2694 1.7227 2.1694 0.1911 -8.6569 1.2701 -0.1327 9.1865 0.0341 0.0954 4.6173 0.0000 0.0000 0.0000 -88.1853 1.0177 26.8555 12.4948 -20.5426 -2.2729 -0.0000 0.0000 -15.3852 17.3729 12.2505 3.7980 -7.1250 0.0000 -0.0000 -8.9043 42.6235 0.5267 0.0000 0.0000 0.0000 89.8964 -1.3871 22.4681 -13.8016 22.4503 -2.7519 0.0000 0.0000 1.8166 -19.0625 -7.2375 2.4927 7.1250 -0.0000 -0.0000 6.5943 -37.5588 1.2141
-39.0118 17.0238 -5.9428 -57.3270 86.1083 -58.6885 0.0000 0.0000 0.0000 -16.9178 5.1626 -2.5944 1.1167 6.7130 18.8678 0.8042 3.0055 -18.2861 0.0985 -2.0244 -5.5732 0.0000 0.0000 0.0000 23.2256 7.4608 -6.4767 -3.2738 -11.1256 32.7048 -1.9914 -4.5200 -28.5820 -0.1674 -2.6357 7.2660 2.6046 -0.4644 0.3825 0.2978 -0.6247 1.9142 -1.1607 -0.2673 1.7233 2.1985 0.2018 -8.6958 1.2547 -0.1221 9.2074 0.0244 0.1013 4.6331 0.0000 -0.0000 0.0000 -88.1814 1.0190 26.8926 12.5045 -20.5568 -2.2763 -0.0000 0.0000 -15.3957 17.3792 12.2614 3.8028 -7.1250 0.0000 -0.0000 -8.9009 42.6354 0.5238 0.0000 -0.0000 0.0000 89.9041 -1.3986 22.4947 -13.8153 22.4701 -2.7571 0.0000 0.0000 1.8069 -19.0544 -7.2637 2.5005 7.1250 -0.0000 -0.0000 6.6046 -37.5857 1.2117
-39.0102 17.0236 -5.9427 -57.2403 86.1121 -58.6038 0.0000 0.0000 0.0000 -16.9247 5.1686 -2.5851 1.1166 6.7129 18.8674 0.8055 2.9996 -18.2960 0.0985 -2.0236 -5.5710 0.0000 0.0000 0.0000 23.2149 7.4400 -6.4776 -3.2744 -11.1265 32.7077 -1.9910 -4.5083 -28.5737 -0.1665 -2.6288 7.2469 2.6010 -0.4629 0.3854 0.2950 -0.6225 1.9119 -1.1614 -0.2663 1.7195 2.2465 0.2225 -8.7540 1.2233 -0.0994 9.2327 0.0068 0.1130 4.6545 0.0000 -0.0000 0.0000 -88.1771 1.0256 26.9297 12.5159 -20.5738 -2.2804 -0.0000 0.0000 -15.4082 17.3877 12.2734 3.8084 -7.1250 0.0000 -0.0000 -8.8959 42.6486 0.5206 0.0000 -0.0000 0.0000 89.9114 -1.4157 22.5264 -13.8335 22.4962 -2.7641 0.0000 0.0000 1.7950 -19.0440 -7.2847 2.5062 7.1250 -0.0000 -0.0000 6.6161 -37.6069 1.2103
